HIERARCHY
ROOT RootJoint
{
    OFFSET   0.000000   0.000000   0.000000
    CHANNELS 6 Xposition Yposition Zposition Xrotation Yrotation Zrotation
    JOINT pelvis_lowerback
    {
        OFFSET   0.000000   0.093605   0.000000
        CHANNELS 3 Xrotation Yrotation Zrotation
        JOINT lowerback_torso
        {
            OFFSET   0.000000   0.100000   0.000000
            CHANNELS 3 Xrotation Yrotation Zrotation
            JOINT torso_head
            {
                OFFSET   0.000000   0.282350   0.000000
                CHANNELS 3 Xrotation Yrotation Zrotation
                End Site
                {
                    OFFSET   0.000000   0.192650   0.000000
                }
            }
            JOINT rTorso_Clavicle
            {
                OFFSET  -0.001000   0.157500   0.000000
                CHANNELS 3 Xrotation Yrotation Zrotation
                JOINT rShoulder
                {
                    OFFSET  -0.117647   0.000000   0.000000
                    CHANNELS 3 Xrotation Yrotation Zrotation
                    JOINT rElbow
                    {
                        OFFSET  -0.245000   0.000000   0.000000
                        CHANNELS 3 Xrotation Yrotation Zrotation
                        JOINT rWrist
                        {
                            OFFSET  -0.240000   0.000000   0.000000
                            CHANNELS 3 Xrotation Yrotation Zrotation
                            End Site
                            {
                                OFFSET  -0.116353  -0.002500   0.000000
                            }
                        }
                    }
                }
            }
            JOINT lTorso_Clavicle
            {
                OFFSET   0.001000   0.157500   0.000000
                CHANNELS 3 Xrotation Yrotation Zrotation
                JOINT lShoulder
                {
                    OFFSET   0.117647   0.000000   0.000000
                    CHANNELS 3 Xrotation Yrotation Zrotation
                    JOINT lElbow
                    {
                        OFFSET   0.245000   0.000000   0.000000
                        CHANNELS 3 Xrotation Yrotation Zrotation
                        JOINT lWrist
                        {
                            OFFSET   0.240000   0.000000   0.000000
                            CHANNELS 3 Xrotation Yrotation Zrotation
                            End Site
                            {
                                OFFSET   0.116353  -0.002500   0.000000
                            }
                        }
                    }
                }
            }
        }
    }
    JOINT rHip
    {
        OFFSET  -0.100000  -0.051395   0.000000
        CHANNELS 3 Xrotation Yrotation Zrotation
        JOINT rKnee
        {
            OFFSET   0.000000  -0.410000   0.000000
            CHANNELS 3 Xrotation Yrotation Zrotation
            JOINT rAnkle
            {
                OFFSET   0.000000  -0.390000   0.000000
                CHANNELS 3 Xrotation Yrotation Zrotation
                JOINT rToeJoint
                {
                    OFFSET   0.000000  -0.050000   0.130000
                    CHANNELS 3 Xrotation Yrotation Zrotation
                    End Site
                    {
                        OFFSET  -0.010000   0.002000   0.060000
                    }
                }
            }
        }
    }
    JOINT lHip
    {
        OFFSET   0.100000  -0.051395   0.000000
        CHANNELS 3 Xrotation Yrotation Zrotation
        JOINT lKnee
        {
            OFFSET   0.000000  -0.410000   0.000000
            CHANNELS 3 Xrotation Yrotation Zrotation
            JOINT lAnkle
            {
                OFFSET   0.000000  -0.390000   0.000000
                CHANNELS 3 Xrotation Yrotation Zrotation
                JOINT lToeJoint
                {
                    OFFSET   0.000000  -0.050000   0.130000
                    CHANNELS 3 Xrotation Yrotation Zrotation
                    End Site
                    {
                        OFFSET   0.010000   0.002000   0.060000
                    }
                }
            }
        }
    }
}
MOTION
Frames: 15
Frame Time:   0.008333
 -2.330961   0.831296   4.074544  10.961863  -2.688717   3.880524   7.854208   6.469648  -2.700726  11.601385   5.523021  -1.786548 -16.987348  -4.207931  -0.730567  -3.080703  11.621805   7.847952 -12.225975  16.637242  30.541714  -0.225087  77.126256   0.222799   0.602495   2.707293  -0.853578   5.141089  -4.769941  -9.399521  22.003154  -1.161450 -35.990867   0.026679 -49.423063  -0.009640  -0.850054  -4.607491   2.034315 -17.059018   2.842102  -8.130717  61.223070   0.004346   0.021615 -24.159198   0.423278   6.729701  -6.065010  -0.006369   0.011314 -59.403568   2.168342   7.744146  74.987920  -0.006714  -0.079731 -19.131256  -1.061919  -0.260918   1.664197  -0.000720  -0.002748
 -2.329498   0.834161   4.085774  10.662172  -1.821714   3.976702   7.870746   6.480229  -2.961638  11.840064   5.512777  -2.140610 -16.482396  -4.402707  -0.449404  -2.825418  11.444874   7.913589 -10.324012  16.218732  31.305404  -0.334724  74.871719   0.320342   0.632192   3.905052  -1.137183   4.936582  -4.791328  -9.698429  21.045104  -1.774205 -35.941002   0.022850 -50.288542  -0.017940  -0.869872  -4.069081   1.925001 -17.205668   2.508747  -8.092243  63.979978   0.009132   0.029928 -22.575814   0.293059   6.200792  -5.367847  -0.002243   0.009349 -57.763112   2.121841   7.231520  71.959403  -0.002329  -0.074028 -20.025543  -1.102360  -0.734515   1.591647  -0.000797  -0.002383
 -2.327661   0.836383   4.097306  10.309249  -0.933305   4.020593   7.831815   6.419737  -3.083315  12.091910   5.428148  -2.423507 -16.016169  -4.573839  -0.176737  -2.431038  11.230846   8.100582  -8.412407  15.728891  32.085189  -0.384053  72.601997   0.357051   0.629877   4.243807  -1.222527   4.634955  -4.895487 -10.130017  20.055257  -2.466694 -35.951672   0.018793 -51.156314  -0.024955  -0.893904  -3.805460   1.902661 -17.532952   2.163610  -8.021542  66.979270   0.014642   0.036725 -21.099511   0.155344   5.710983  -4.833829   0.000476   0.007791 -55.838969   2.046301   6.712821  69.249147   0.000045  -0.068112 -20.864022  -1.138345  -1.175383   1.481500  -0.000962  -0.002187
 -2.325575   0.837926   4.108986   9.967040  -0.017644   4.020525   7.741139   6.261283  -3.123897  12.311025   5.251187  -2.628013 -15.593012  -4.730173   0.084960  -1.971262  10.980233   8.360361  -6.553662  15.236499  32.869763  -0.391467  70.440306   0.354041   0.614110   4.221299  -1.159316   4.299669  -5.055324 -10.614352  19.087489  -3.181782 -36.005191   0.014973 -51.997902  -0.029529  -0.914392  -3.747441   1.861770 -17.991220   1.843306  -7.914194  69.872124   0.020850   0.041645 -19.721480   0.018426   5.257530  -4.360134   0.002568   0.006897 -53.790431   1.980377   6.227048  66.803147   0.000216  -0.063453 -21.641914  -1.168362  -1.587038   1.393645  -0.001041  -0.002026
 -2.323290   0.838744   4.120715   9.649311   0.914257   3.991736   7.616402   6.012298  -3.114132  12.492637   4.990414  -2.770375 -15.205792  -4.875028   0.333775  -1.486645  10.701409   8.649893  -4.773324  14.760141  33.637858  -0.375311  68.404248   0.330389   0.594515   4.058254  -1.023225   3.948065  -5.253254 -11.104842  18.153392  -3.893200 -36.077932   0.011413 -52.804296  -0.031881  -0.931370  -3.818301   1.801728 -18.558688   1.557129  -7.790481  72.580623   0.027085   0.044472 -18.437227  -0.116491   4.837012  -3.935247   0.004207   0.006406 -51.685911   1.925637   5.781888  64.585580  -0.000787  -0.059837 -22.364412  -1.192869  -1.971701   1.323528  -0.001052  -0.001884
 -2.320838   0.838800   4.132447   9.356870   1.852811   3.943295   7.470614   5.686622  -3.071154  12.640313   4.659289  -2.863568 -14.848351  -5.009800   0.569134  -0.998401  10.400442   8.942661  -3.081485  14.305090  34.375299  -0.346978  66.493733   0.297291   0.574565   3.835030  -0.861334   3.587440  -5.477179 -11.575890  17.256233  -4.586955 -36.154414   0.008130 -53.571968  -0.032487  -0.944910  -3.973056   1.744068 -19.214784   1.306143  -7.665005  75.092978   0.032788   0.045363 -17.241055  -0.248831   4.446598  -3.553466   0.005471   0.006101 -49.564229   1.876512   5.379700  62.570276  -0.002232  -0.056892 -23.036041  -1.212328  -2.330997   1.266840  -0.001015  -0.001751
 -2.318247   0.838067   4.144161   9.087728   2.790928   3.880759   7.311833   5.298890  -3.005717  12.758421   4.271773  -2.917233 -14.516483  -5.135392   0.791257  -0.517356  10.082309   9.223876  -1.480691  13.872191  35.074752  -0.313322  64.703756   0.261089   0.555305   3.582546  -0.700406   3.222339  -5.717787 -12.014420  16.397118  -5.255278 -36.226013   0.005160 -54.299800  -0.031833  -0.955082  -4.184597   1.705296 -19.939156   1.088705  -7.546854  77.415583   0.037620   0.044669 -16.127139  -0.378186   4.083853  -3.210206   0.006411   0.005854 -47.451511   1.828544   5.020692  60.735803  -0.003715  -0.054320 -23.660763  -1.227250  -2.666422   1.220494  -0.000948  -0.001622
 -2.315180   0.836398   4.155848   8.782718   3.640344   3.973678   7.205812   4.952766  -2.981004  12.864590   3.894491  -3.120515 -14.195704  -5.086292   0.891785  -0.122095   9.603831   9.438109   0.234570  13.140237  35.937987  -0.283979  62.596694   0.225927   0.541621   3.909599  -0.577589   2.944068  -5.882118 -12.290514  14.790737  -5.787055 -36.479377  -0.015071 -55.966386  -0.058331  -0.974300  -3.538794   1.365845 -21.056532   0.704232  -7.741642  80.197026   0.036547   0.038779 -15.464989  -0.747006   3.577470  -3.019676   0.006233   0.004306 -45.116458   1.657693   4.520406  59.438082  -0.002269  -0.047077 -24.662978  -1.358957  -2.718760   1.107632  -0.000721  -0.001460
 -2.312024   0.833910   4.167633   8.465630   4.470210   4.067028   7.078298   4.529023  -2.953211  12.951584   3.426101  -3.318840 -13.894368  -5.025495   0.964289   0.335411   9.059175   9.657538   1.915779  12.383817  36.759595  -0.251540  60.563067   0.188968   0.521206   3.931693  -0.445973   2.583454  -6.089022 -12.553930  13.200643  -6.347975 -36.716600  -0.033270 -57.604186  -0.078156  -0.994518  -3.323040   1.231598 -22.345076   0.327850  -7.944545  82.899981   0.034425   0.033762 -14.853045  -1.098905   3.108351  -2.893090   0.005651   0.003225 -42.632793   1.460607   4.073575  58.401013  -0.001231  -0.040620 -25.597225  -1.482737  -2.767763   0.978884  -0.000520  -0.001390
 -2.308828   0.830577   4.179503   8.154606   5.294140   4.144714   6.918721   4.007707  -2.926431  13.005185   2.859826  -3.490919 -13.614601  -4.967096   1.027308   0.818571   8.477523   9.866455   3.535580  11.641410  37.540563  -0.217365  58.638260   0.151482   0.499810   3.779044  -0.307040   2.186155  -6.337083 -12.798346  11.667809  -6.907260 -36.932611  -0.046980 -59.157890  -0.089601  -1.008753  -3.306290   1.196018 -23.746552  -0.012057  -8.124545  85.419367   0.032507   0.030162 -14.286178  -1.430192   2.673456  -2.789947   0.005040   0.002468 -40.064591   1.261192   3.698059  57.530484  -0.000722  -0.035282 -26.464719  -1.597549  -2.814693   0.870657  -0.000371  -0.001364
 -2.305594   0.826362   4.191444   7.854978   6.110521   4.208417   6.729944   3.403198  -2.903595  13.022595   2.213346  -3.638428 -13.355394  -4.913485   1.084374   1.309632   7.871536  10.051595   5.084365  10.920926  38.275993  -0.183827  56.825343   0.115714   0.478310   3.532787  -0.189363   1.768179  -6.613816 -13.016317  10.200426  -7.454048 -37.127557  -0.056356 -60.622966  -0.094401  -1.017871  -3.388662   1.218431 -25.224137  -0.310489  -8.285684  87.741570   0.030952   0.027551 -13.761617  -1.741840   2.269861  -2.705564   0.004446   0.001931 -37.457625   1.063876   3.389611  56.787079  -0.000564  -0.030832 -27.271005  -1.703881  -2.859688   0.780216  -0.000265  -0.001351
 -2.302324   0.821243   4.203442   7.567736   6.915593   4.261744   6.516949   2.736742  -2.886989  13.006166   1.508151  -3.766757 -13.115299  -4.864870   1.137023   1.799228   7.251138  10.206145   6.559246  10.225095  38.963603  -0.152722  55.120956   0.083333   0.456663   3.229342  -0.110852   1.338145  -6.908957 -13.205803   8.800117  -7.983386 -37.302965  -0.062044 -62.001575  -0.094468  -1.022526  -3.532655   1.284041 -26.746789  -0.568727  -8.434058  89.875710   0.029670   0.025542 -13.276240  -2.035002   1.895090  -2.636929   0.003886   0.001542 -34.847067   0.869525   3.140815  56.148467  -0.000606  -0.027041 -28.020912  -1.802366  -2.902721   0.704007  -0.000190  -0.001332
 -2.299024   0.815214   4.215487   7.292915   7.706354   4.307896   6.284926   2.029265  -2.878578  12.960155   0.764707  -3.881390 -12.893043  -4.820961   1.186190   2.281761   6.625745  10.328871   7.960092   9.556086  39.604376  -0.125114  53.520269   0.055284   0.434691   2.887757  -0.077471   0.902327  -7.214632 -13.368478   7.466686  -8.492927 -37.461656  -0.064770 -63.297485  -0.091414  -1.023259  -3.720957   1.383435 -28.287877  -0.790379  -8.573488  91.836540   0.028547   0.023902 -12.826980  -2.310763   1.546957  -2.581484   0.003368   0.001252 -32.261349   0.678685   2.943673  55.598463  -0.000749  -0.023749 -28.718748  -1.893622  -2.943769   0.639079  -0.000138  -0.001299
 -2.296430   0.812131   4.225934   6.785707   8.703655   4.655117   6.873192   1.374480  -3.088401  12.799362  -0.055178  -4.017308 -12.802320  -4.595873   1.052450   2.833836   6.040389  10.434514   9.316455   8.555883  40.150686  -0.103850  52.850338   0.042592   0.385337   2.389385  -0.090409   0.372791  -7.667054 -13.324132   5.461610  -8.902490 -37.767967  -0.098802 -65.480548  -0.123812  -0.975111  -3.049444   1.231777 -29.693957  -0.734855  -8.866624  92.413882   0.025951   0.021048 -13.040112  -2.513114   1.296928  -2.637018   0.002400   0.000788 -30.506229   0.674483   2.404054  54.881658  -0.002843  -0.022689 -31.846051  -1.996651  -3.590012   0.935926   0.001500   0.000149
 -2.294175   0.811204   4.236782   5.998002   9.237333   5.168442   7.642545   0.885354  -3.383052  12.827695  -0.778983  -4.235562 -12.652494  -4.361293   0.892790   3.362384   5.492473  10.524033  10.599353   7.640607  40.690684  -0.086350  52.257653   0.032233   0.349852   2.118867   0.029663  -0.208042  -8.111348 -13.224387   3.508154  -9.318814 -38.035170  -0.126045 -67.599714  -0.146545  -0.924900  -2.799724   1.302645 -30.993659  -0.484359  -9.113086  92.472536   0.020994   0.016929 -13.264566  -2.704189   1.054487  -2.733583   0.001673   0.000355 -28.979999   0.605605   1.840048  54.997295  -0.002143  -0.017951 -32.656214  -2.248755  -3.680455   0.743303   0.001026   0.000137
